<?xml version="1.0" encoding="utf-8"?>
<!-- Generator: Adobe Illustrator 27.9.6, SVG Export Plug-In . SVG Version: 9.03 Build 54986)  -->
<svg version="1.1" id="Layer_1" xmlns="http://www.w3.org/2000/svg" xmlns:xlink="http://www.w3.org/1999/xlink" x="0px" y="0px"
	 viewBox="0 0 147.5 60" style="enable-background:new 0 0 147.5 60;" xml:space="preserve">
<style type="text/css">
	.st0{fill:#FFFFFF;}
</style>
<g>
	<path class="st0" d="M60.6,10.5c1.6-1.6,3.5-2.4,5.7-2.4s4.1,0.8,5.7,2.4s2.4,3.5,2.4,5.7s-0.8,4.1-2.4,5.7s-3.5,2.4-5.7,2.4
		s-4.1-0.8-5.7-2.4c-1.6-1.6-2.4-3.5-2.4-5.7C58.2,14,59,12,60.6,10.5z M62.6,19.9c1,1,2.3,1.6,3.7,1.6S69,21,70,19.9
		c1-1,1.6-2.3,1.6-3.7c0-1.5-0.5-2.7-1.6-3.7c-1-1-2.3-1.6-3.7-1.6s-2.7,0.5-3.7,1.6c-1,1-1.5,2.3-1.5,3.7
		C61,17.6,61.6,18.9,62.6,19.9z"/>
	<path class="st0" d="M78.9,10.5c1.6-1.6,3.5-2.4,5.7-2.4s4.1,0.8,5.7,2.4s2.4,3.5,2.4,5.7s-0.8,4.1-2.4,5.7s-3.5,2.4-5.7,2.4
		s-4.1-0.8-5.7-2.4s-2.4-3.5-2.4-5.7S77.3,12,78.9,10.5z M80.9,19.9c1,1,2.3,1.6,3.7,1.6s2.7-0.5,3.7-1.6c1-1,1.6-2.3,1.6-3.7
		c0-1.5-0.5-2.7-1.6-3.7c-1-1-2.3-1.6-3.7-1.6s-2.7,0.5-3.7,1.6c-1,1-1.5,2.3-1.5,3.7C79.4,17.6,79.9,18.9,80.9,19.9z"/>
	<path class="st0" d="M103.4,8.5c1.6,0,2.9,0.5,4,1.6s1.7,2.4,1.7,4s-0.6,2.9-1.7,4s-2.4,1.6-4,1.6h-4.9v4.1h-2.8V8.5H103.4z
		 M103.3,17c0.8,0,1.5-0.3,2.1-0.8c0.6-0.6,0.9-1.2,0.9-2s-0.3-1.5-0.9-2c-0.6-0.6-1.3-0.9-2.1-0.9h-4.8V17H103.3z"/>
	<path class="st0" d="M124.6,11.1h-9.5v3.7h7.9v2.7h-7.9v3.7h9.5v2.7h-12.4V8.5h12.4V11.1z"/>
	<path class="st0" d="M138.7,18.6l4,5.3h-3.3l-3.5-4.8h-4.6v4.8h-2.8V8.5h8.1c1.5,0,2.8,0.5,3.8,1.6s1.6,2.3,1.6,3.8
		c0,1-0.3,2-0.8,2.8C140.7,17.5,139.6,18.2,138.7,18.6z M136.3,16.4c0.7,0,1.4-0.2,1.9-0.7c0.5-0.5,0.8-1.1,0.8-1.8
		s-0.3-1.3-0.8-1.8s-1.1-0.8-1.9-0.8h-5.1v5.2h5.1V16.4z"/>
	<path class="st0" d="M63,34.9c2.1,0,3.9,0.7,5.4,2.2s2.2,3.3,2.2,5.4s-0.7,3.9-2.2,5.4s-3.3,2.3-5.3,2.3h-6.6V34.9H63z M62.9,47.5
		c1.3,0,2.5-0.5,3.4-1.5s1.4-2.1,1.4-3.5S67.2,40,66.3,39s-2.1-1.5-3.4-1.5h-3.7v9.9L62.9,47.5L62.9,47.5z"/>
	<path class="st0" d="M86.2,37.5h-9.5v3.7h7.9v2.7h-7.9v3.7h9.5v2.7H73.8V34.9h12.4C86.2,34.9,86.2,37.5,86.2,37.5z"/>
	<path class="st0" d="M96.2,41.3c0.7,0.2,1.2,0.4,1.6,0.5s0.9,0.4,1.5,0.6s1,0.6,1.3,0.9c0.3,0.3,0.6,0.7,0.8,1.2
		c0.2,0.5,0.4,1,0.4,1.5c0,0.8-0.2,1.5-0.5,2.1c-0.4,0.6-0.9,1.1-1.5,1.4c-0.6,0.3-1.3,0.6-2.1,0.7s-1.6,0.2-2.4,0.2
		c-2.2,0-4.3-0.6-6.3-1.7l1.4-2.3c1.7,0.9,3.4,1.4,5,1.4c2.3,0,3.5-0.6,3.5-1.8c0-0.3-0.1-0.6-0.3-0.9c-0.2-0.3-0.5-0.5-0.9-0.7
		s-0.8-0.4-1.1-0.5c-0.3-0.1-0.8-0.3-1.4-0.5h-0.1c0,0,0,0-0.1,0c0,0,0,0-0.1,0c-0.7-0.2-1.3-0.4-1.6-0.5s-0.9-0.3-1.5-0.6
		s-1-0.6-1.4-0.9s-0.6-0.7-0.8-1.2c-0.2-0.5-0.4-1-0.4-1.6c0-1.2,0.5-2.3,1.5-3c1.1-0.8,2.7-1.2,4.7-1.2s4,0.6,5.9,1.7l-1.4,2.2
		c-1.6-0.9-3.2-1.4-4.7-1.4c-1,0-1.8,0.1-2.4,0.4S92,38,92,38.5c0,0.3,0.1,0.5,0.2,0.7s0.3,0.4,0.5,0.6s0.5,0.3,0.8,0.5
		c0.4,0.2,0.7,0.3,1,0.4c0.2,0.1,0.6,0.2,1.2,0.4C96,41.3,96.2,41.3,96.2,41.3z"/>
	<path class="st0" d="M108.3,50.3h-2.8V34.9h2.8V50.3z"/>
	<path class="st0" d="M120.1,41.7h7.1c0,0.2,0,0.5,0,0.9c0,2.3-0.7,4.1-2,5.7c-1.5,1.6-3.4,2.5-5.7,2.5c-2.2,0-4.1-0.8-5.7-2.4
		c-1.6-1.6-2.4-3.5-2.4-5.7s0.8-4.1,2.4-5.7s3.5-2.4,5.7-2.4c1.3,0,2.5,0.3,3.7,0.9c1.2,0.6,2.1,1.4,2.9,2.4l-2.3,1.6
		c-0.5-0.7-1.1-1.2-1.9-1.6c-0.7-0.4-1.5-0.6-2.4-0.6c-1.5,0-2.7,0.5-3.7,1.6c-1,1-1.5,2.3-1.5,3.7s0.5,2.7,1.5,3.7s2.3,1.6,3.7,1.6
		c1.2,0,2.2-0.3,3-1s1.3-1.5,1.6-2.5H120v-2.7H120.1z"/>
	<path class="st0" d="M144.1,34.9v15.4H142l-9-10.6v10.6h-2.8V34.9h2.1l9.1,10.5V34.9H144.1z"/>
</g>
<g>
	<path class="st0" d="M1.6,45.1c2.4-3.9,4.3-8,4.9-12.5c0.3-2.1,0.2-4.3,0.4-6.4c0.5-5.8,2.4-11.1,6.8-15.2C17,7.9,21,6.3,25.5,5.9
		c4.3-0.3,8.4,0,12.4,1.7c1.2,0.5,2.4,1.2,3.7,1.8C37,13.5,32.5,17.5,28,21.5l-0.1-0.1c0.5-0.7,1-1.4,1.4-2.1s0.8-1.4,1.1-2.2
		c0.3-1-0.1-1.5-1.2-1.7c-4.9-0.6-8.3,2.2-9.2,7.5c-0.3,1.8-0.3,3.6-0.5,5.4c0,0.3-0.1,0.8-0.4,1C13.4,34.6,7.5,39.8,1.6,45.1z"/>
	<path class="st0" d="M19.4,32.2c0.4,2.6,0.6,5.2,1.1,7.8c1,4.6,4.1,6.1,8.5,5.8c1.1-0.1,2.2-0.1,3.2-0.4c3.1-0.8,4.7-3.1,5.4-6
		c0.5-1.9,0.4-1.9,2.3-1.9c1.9-0.1,2.4-0.3,5-1.6c-0.4,0.3-0.7,0.7-1.1,1c-0.4,0.3-0.8,0.7-1.1,1c-6,5.4-12.1,10.7-18.1,16.1
		c-0.8,0.7-1.5,1-2.6,0.7C15.5,53,11.1,49,8.6,42.7c-0.1-0.3-0.1-0.8,0.1-1c3.5-3.1,7-6.2,10.5-9.4C19.3,32.2,19.4,32.1,19.4,32.2z"
		/>
	<path class="st0" d="M22,59.1C32.2,50.1,42.3,41,52.5,32l0.1,0.1c-0.2,0.3-0.4,0.7-0.6,1c-1.6,2.3-2.7,4.8-3.1,7.7
		c-1.1,7.1-5.7,11.3-12.3,13.4c-1.7,0.5-3.5,0.6-5.2,1.1c-2.1,0.6-4.1,1.5-6,2.3c-1.1,0.5-2.1,1.1-3.2,1.7
		C22.1,59.2,22,59.2,22,59.1z"/>
	<path class="st0" d="M49.2,23.4c-4.2,0-8.3,0-12.3,0c-0.5-1.9-0.9-3.6-1.4-5.7c6.2-5.5,12.6-11.2,19.2-17C53,2.9,51.3,4.8,49.9,7
		c-1.2,1.8-2.1,3.8-2.9,5.8c-0.4,1-0.2,2.1,0.2,3.1c0.8,2.1,1.4,4.4,2,6.6C49.3,22.7,49.2,23,49.2,23.4z"/>
</g>
</svg>
